<?xml version="1.0" standalone="no"?>
<!DOCTYPE svg PUBLIC "-//W3C//DTD SVG 20010904//EN"
 "http://www.w3.org/TR/2001/REC-SVG-20010904/DTD/svg10.dtd">
<svg version="1.0" xmlns="http://www.w3.org/2000/svg"
 width="2000.000000pt" height="2000.000000pt" viewBox="0 0 2000.000000 2000.000000"
 preserveAspectRatio="xMidYMid meet">

<g transform="translate(0.000000,2000.000000) scale(0.100000,-0.100000)"
fill="#000000" stroke="none">
<path d="M14640 17563 c-19 -2 -84 -12 -145 -23 -60 -10 -150 -21 -200 -24
-174 -12 -392 -72 -501 -137 -67 -40 -131 -108 -232 -244 -81 -110 -270 -410
-292 -464 -24 -60 -16 -184 19 -288 32 -97 109 -259 118 -250 2 3 17 56 33
117 l28 112 -20 34 c-16 28 -19 47 -16 96 4 51 9 65 32 85 38 32 95 29 108 -6
7 -20 6 -22 -9 -16 -40 16 -52 16 -72 -4 -26 -26 -35 -78 -21 -115 l11 -29 28
45 c16 25 39 53 52 62 20 14 24 14 32 1 13 -23 62 -45 104 -45 34 -1 41 -5 65
-45 50 -83 177 -153 280 -156 81 -2 231 8 251 16 12 5 23 0 37 -18 34 -43 100
-56 163 -32 15 6 17 1 17 -42 0 -105 84 -192 171 -178 30 5 41 2 64 -19 38
-35 99 -51 152 -39 31 8 58 6 105 -6 35 -8 64 -16 66 -17 2 -1 -15 -40 -37
-88 -22 -47 -37 -86 -35 -86 15 0 186 126 232 171 86 84 83 71 85 402 2 278 1
295 -21 364 -15 49 -35 87 -63 119 -60 69 -93 144 -134 304 -44 173 -84 281
-124 336 -38 52 -109 90 -191 103 -65 11 -75 11 -140 4z m-468 -830 c139 -53
259 -102 267 -109 13 -12 9 -21 -22 -67 -53 -77 -163 -180 -227 -212 -107 -54
-231 -26 -330 74 -81 81 -98 151 -61 255 24 70 81 156 103 156 9 0 131 -43
270 -97z m748 -249 c285 -82 300 -88 300 -108 0 -28 -90 -194 -130 -238 -60
-69 -114 -92 -204 -86 -90 6 -167 40 -235 103 -70 65 -95 128 -89 225 6 103
48 196 82 185 6 -2 130 -39 276 -81z"/>
<path d="M13858 16223 c-18 -22 -2 -30 127 -68 137 -40 158 -43 153 -17 -2 12
-26 24 -78 40 -41 13 -101 31 -132 41 -49 15 -60 16 -70 4z"/>
<path d="M13937 16013 c-9 -3 -24 -18 -32 -34 -14 -26 -14 -32 0 -59 31 -60
115 -43 115 23 0 52 -35 82 -83 70z"/>
<path d="M14550 15995 c-10 -12 -7 -18 20 -32 60 -34 165 -106 203 -140 39
-35 60 -38 65 -12 3 19 -103 106 -194 159 -78 45 -77 45 -94 25z"/>
<path d="M13315 15921 c-105 -60 -202 -170 -240 -272 -9 -24 -22 -54 -27 -66
-16 -33 -3 -169 22 -235 34 -90 115 -205 214 -303 97 -96 270 -232 324 -254
l32 -13 0 -90 c0 -447 -181 -1000 -476 -1451 -35 -54 -64 -106 -64 -117 0 -24
426 -420 452 -420 10 0 27 9 37 19 20 20 115 206 185 359 l37 84 263 -7 264
-8 15 24 c15 24 27 175 97 1184 11 154 22 305 26 336 l6 57 58 21 c105 38 213
136 262 236 36 73 68 288 68 455 l0 95 -34 -50 c-188 -278 -442 -429 -696
-412 -118 8 -198 30 -315 87 -208 103 -353 264 -428 477 -27 76 -31 102 -32
191 0 56 0 102 0 102 0 0 -23 -13 -50 -29z"/>
<path d="M14530 15790 c-41 -41 -13 -110 45 -110 61 0 85 61 40 105 -29 30
-58 32 -85 5z"/>
<path d="M12835 15563 c-472 -59 -813 -142 -1026 -248 -128 -63 -163 -90 -297
-233 -206 -219 -514 -489 -827 -725 -104 -78 -208 -168 -296 -256 -121 -122
-138 -143 -160 -201 -21 -54 -32 -70 -71 -96 -25 -17 -85 -44 -134 -59 -49
-16 -101 -37 -116 -47 -36 -25 -73 -89 -92 -158 -8 -30 -33 -107 -56 -170 -40
-110 -42 -119 -36 -200 6 -91 31 -194 67 -275 l23 -50 7 30 c4 17 15 62 25
100 23 94 49 157 100 235 52 82 110 137 201 192 l71 44 -29 44 c-35 51 -52
110 -43 145 6 24 50 51 143 87 14 5 55 29 92 53 59 40 117 98 309 308 102 112
268 224 570 387 390 210 617 394 737 598 95 164 169 204 578 317 133 36 304
112 360 159 l30 25 -50 -1 c-27 0 -63 -3 -80 -5z"/>
<path d="M12184 14339 c-248 -253 -733 -602 -1141 -820 l-82 -44 -31 37 c-33
40 -121 108 -140 108 -6 0 4 -19 23 -42 65 -80 263 -409 302 -503 8 -19 9 -19
12 2 8 44 -83 276 -139 356 l-20 27 44 19 c24 10 88 38 143 61 385 162 792
421 947 602 80 94 163 237 146 253 -2 3 -31 -23 -64 -56z"/>
<path d="M10818 13031 c-76 -25 -119 -53 -173 -114 -96 -106 -166 -285 -196
-500 -11 -78 -10 -86 15 -164 50 -152 77 -171 235 -172 l95 -1 88 -57 c48 -32
87 -61 85 -65 -1 -4 -1104 -1310 -2452 -2903 -1347 -1594 -2459 -2908 -2470
-2922 -19 -23 -21 -24 -57 -9 -21 9 -57 16 -81 16 -102 0 -130 -111 -51 -201
13 -14 11 -22 -11 -60 -47 -83 -27 -102 46 -45 44 33 46 33 74 18 17 -9 54
-16 83 -16 47 -1 57 3 78 27 32 37 32 90 -1 142 -13 22 -25 43 -25 47 0 5
2136 2535 4946 5857 2 2 27 -6 56 -18 49 -20 57 -20 93 -8 22 8 45 24 52 37
13 27 31 40 56 40 14 0 17 -9 17 -60 0 -51 4 -65 25 -85 20 -20 34 -25 78 -25
51 0 58 3 105 46 122 109 282 550 282 775 0 48 -3 59 -16 59 -9 0 -53 29 -97
66 l-80 65 -43 -48 -43 -48 27 -25 c15 -14 47 -42 72 -62 25 -20 42 -39 39
-42 -9 -9 -180 124 -174 135 4 5 2 8 -3 7 -5 -2 -43 26 -86 61 -53 43 -82 75
-93 102 -23 57 -93 115 -172 140 -94 31 -246 35 -323 10z m942 -472 c-10 -88
-20 -128 -20 -80 0 12 -8 33 -17 47 -16 25 -15 28 13 79 16 30 30 52 32 51 1
-2 -2 -45 -8 -97z m-64 -292 c-46 -141 -142 -342 -185 -385 -38 -37 -73 -49
-110 -36 -23 8 -26 15 -29 65 l-3 57 53 30 c30 16 71 49 92 72 39 44 136 188
136 203 0 14 72 118 78 113 2 -3 -12 -56 -32 -119z"/>
<path d="M14685 12814 c-38 -15 -89 -31 -112 -37 l-43 -12 6 -185 c8 -226 2
-252 -67 -324 -74 -75 -219 -270 -289 -388 -34 -57 -99 -179 -143 -273 -45
-93 -134 -273 -197 -400 l-115 -230 -82 -55 c-102 -69 -155 -120 -185 -179
-13 -25 -27 -50 -33 -54 -5 -4 -56 -5 -113 -1 -129 8 -137 3 -196 -114 -43
-86 -106 -260 -106 -292 0 -33 -14 -29 -74 24 -190 164 -441 331 -771 513
-110 60 -267 151 -350 203 -82 51 -211 131 -285 177 -74 46 -191 112 -259 146
l-125 62 -110 0 c-101 0 -115 -2 -161 -27 -71 -38 -131 -91 -225 -199 -200
-230 -602 -805 -733 -1049 -126 -234 -166 -397 -212 -875 -14 -143 -34 -327
-45 -410 -27 -199 -36 -479 -21 -614 14 -116 48 -260 81 -336 35 -81 34 -83
-183 -188 -374 -182 -681 -384 -1161 -766 -328 -261 -484 -350 -817 -466 -201
-71 -234 -98 -270 -219 -50 -165 -109 -234 -326 -379 -169 -112 -243 -175
-297 -251 -151 -212 -198 -454 -161 -816 l6 -55 -58 -35 c-76 -45 -150 -114
-239 -227 -104 -129 -103 -125 -59 -212 34 -67 37 -79 33 -142 -2 -37 -6 -70
-8 -72 -3 -3 -205 29 -450 69 -245 41 -508 81 -585 89 -269 28 -552 45 -731
45 -182 0 -244 -9 -244 -36 0 -46 308 -156 825 -294 149 -40 771 -197 893
-225 23 -6 23 -6 -11 -48 -45 -56 -82 -122 -98 -175 -9 -31 -16 -41 -28 -37
-17 5 -349 77 -1416 306 -675 145 -923 187 -1324 224 -193 18 -373 17 -392 -2
-81 -81 857 -398 2666 -901 1678 -468 4191 -1110 4995 -1278 508 -106 1412
-41 1887 135 229 85 430 227 421 299 -4 34 -52 67 -121 82 -85 20 -383 24
-642 9 -370 -22 -609 -17 -860 15 -509 66 -1258 212 -1754 342 -260 68 -1378
320 -1386 312 -2 -2 2 -28 10 -58 17 -63 12 -100 -15 -125 -17 -15 -32 -17
-94 -12 -137 12 -796 153 -1165 250 l-123 32 -45 105 c-25 58 -59 146 -76 195
-31 87 -32 96 -31 245 1 145 5 170 51 395 l50 240 134 -2 c270 -3 514 -81 756
-240 l85 -56 34 39 c40 47 74 115 74 149 l0 25 283 0 c273 0 284 1 327 22 30
15 53 37 67 63 18 32 23 36 23 18 0 -30 15 -29 91 9 207 103 330 374 271 598
-11 41 -19 76 -18 77 1 2 18 -2 37 -7 49 -14 156 -12 219 5 192 51 390 220
887 760 474 515 680 685 1068 882 267 136 303 182 480 608 83 200 139 365 160
475 9 47 50 250 91 452 41 202 74 375 74 385 1 45 18 -16 23 -83 3 -43 21
-117 46 -190 65 -195 73 -258 76 -599 2 -225 7 -331 21 -425 27 -193 32 -177
-56 -209 -187 -69 -303 -146 -471 -314 -168 -168 -349 -392 -583 -724 -73
-104 -114 -153 -126 -153 -58 0 -97 -52 -87 -115 5 -30 -2 -45 -55 -122 -79
-114 -156 -215 -290 -384 -104 -132 -111 -138 -184 -173 -264 -125 -404 -386
-365 -681 10 -74 10 -90 -3 -104 -8 -9 -21 -29 -30 -45 -14 -28 -13 -32 17
-90 63 -122 34 -234 -98 -376 -38 -41 -91 -99 -116 -128 l-46 -53 -934 155
c-514 86 -944 158 -956 161 -18 4 -28 -3 -50 -37 -26 -38 -28 -49 -28 -137 0
-85 3 -103 28 -153 30 -62 85 -123 146 -163 42 -29 52 -31 891 -211 1281 -274
2920 -604 3630 -729 197 -35 411 -46 645 -34 665 33 1238 190 1520 415 88 70
127 120 123 158 -10 101 -276 112 -918 39 -201 -22 -251 -25 -460 -20 -470 11
-1252 113 -1965 257 -137 27 -256 50 -265 50 -8 0 10 -15 40 -32 80 -46 208
-179 248 -258 42 -84 46 -154 11 -183 -19 -16 -33 -18 -79 -12 -185 22 -1097
227 -1120 252 -4 4 -33 71 -64 148 -92 233 -94 296 -24 659 l43 218 135 -5
c233 -10 445 -79 635 -207 l79 -53 28 34 c50 60 71 115 65 167 -4 26 -9 56
-12 67 -5 18 8 25 122 63 176 59 447 169 633 255 187 88 180 79 239 316 50
200 101 303 286 581 155 233 250 351 550 685 301 336 423 484 536 654 154 228
265 480 299 678 7 40 20 79 29 87 9 7 780 516 1714 1130 l1699 1116 30 -25
c39 -33 90 -34 122 -2 21 21 26 22 62 10 21 -7 51 -15 66 -18 25 -5 26 -7 16
-35 -7 -22 -7 -39 2 -60 28 -67 114 -83 193 -37 56 33 166 152 253 272 102
142 220 399 192 416 -9 6 -24 -20 -51 -89 -21 -53 -40 -98 -42 -100 -1 -2 -14
17 -28 41 l-24 45 60 60 60 61 -44 67 c-24 37 -47 71 -50 77 -5 7 -68 -27
-108 -60 -2 -1 17 -34 42 -73 51 -76 54 -85 33 -93 -21 -8 -130 232 -160 351
-43 175 -88 268 -136 285 -19 7 -55 -2 -155 -38 -305 -110 -543 -256 -600
-365 -20 -38 -23 -167 -6 -228 6 -23 27 -58 46 -77 19 -19 35 -41 35 -50 0
-21 31 -81 92 -179 27 -43 46 -82 41 -86 -13 -12 -3343 -2200 -3348 -2200 -3
0 -2 152 1 338 4 219 3 400 -5 517 -18 272 -17 268 -125 710 -79 325 -94 487
-72 801 l9 132 55 22 c119 50 270 244 327 420 34 107 82 146 263 212 57 22
115 46 128 55 53 34 123 229 144 401 22 172 44 206 438 677 166 198 312 380
324 404 21 43 21 47 7 165 -28 237 -18 286 71 354 27 20 48 42 46 47 -1 6 -17
20 -36 33 -44 29 -97 28 -185 -4z m2709 -3065 c-155 -202 -243 -268 -315 -239
-37 16 -52 43 -44 80 5 25 13 30 57 39 61 14 193 81 257 131 51 40 84 60 89
55 2 -2 -18 -32 -44 -66z"/>
</g>
</svg>
